<svg width="64" height="64" viewBox="0 0 64 64" xmlns="http://www.w3.org/2000/svg">
  <rect width="64" height="64" rx="16" fill="#2563EB"></rect>
  <path d="M18 22C18 18.6863 20.6863 16 24 16H44C47.3137 16 50 18.6863 50 22V42C50 45.3137 47.3137 48 44 48H20C16.6863 48 14 45.3137 14 42V28C14 24.6863 16.6863 22 20 22H44" fill="white" fill-opacity="0.18"></path>
  <path d="M20 24H46C48.2091 24 50 25.7909 50 28V44C50 46.2091 48.2091 48 46 48H20C17.7909 48 16 46.2091 16 44V28C16 25.7909 17.7909 24 20 24Z" fill="white"></path>
  <path d="M20 30H50V36H20C17.7909 36 16 34.2091 16 32C16 29.7909 17.7909 28 20 28V30Z" fill="#DBEAFE"></path>
  <circle cx="43" cy="39" r="4" fill="#2563EB"></circle>
  <path d="M25 18H42C43.1046 18 44 18.8954 44 20V24H22V21C22 19.3431 23.3431 18 25 18Z" fill="#BFDBFE"></path>
</svg>